<svg width="1920" height="1080" viewBox="0 0 1920 1080" fill="none" xmlns="http://www.w3.org/2000/svg">
<g clip-path="url(#clip0_108_217)">
<path d="M850.063 554.12C854.103 549.198 856.124 543.342 856.124 536.561C856.124 530.522 854.845 525.46 852.289 521.368C849.732 517.283 845.647 514.006 840.027 511.545C835.501 509.561 829.785 508.018 822.879 506.909V528.369C822.879 537.105 824.782 544.305 828.595 549.969C831.886 554.87 836.309 558.653 841.856 561.328C845.045 559.278 847.792 556.89 850.063 554.128V554.12Z" fill="#003DFF"/>
<path d="M912.086 468.705C911.343 467.963 910.462 467.588 909.441 467.588H882.125C881.103 467.588 880.222 467.963 879.48 468.705C878.738 469.447 878.363 470.328 878.363 471.349V527.796C878.363 531.234 877.503 533.879 875.784 535.738C874.065 537.597 871.486 538.523 868.048 538.523C864.61 538.523 862.031 537.597 860.312 535.738C858.592 533.879 857.733 531.234 857.733 527.796V471.357C857.733 470.336 857.358 469.454 856.616 468.712C855.874 467.97 854.992 467.595 853.971 467.595H828.859C827.838 467.595 826.956 467.97 826.214 468.712C825.472 469.454 825.098 470.336 825.098 471.357V505.05C831.357 506.167 836.669 507.658 840.923 509.524C846.933 512.154 851.385 515.747 854.17 520.199C856.932 524.63 858.335 530.132 858.335 536.561C858.335 543.834 856.124 550.219 851.774 555.523C849.659 558.102 847.153 560.394 844.273 562.386C844.376 562.422 844.464 562.474 844.567 562.51C851.4 565.207 859.268 566.551 868.195 566.551C877.121 566.551 884.828 565.207 891.61 562.51C898.391 559.814 903.688 555.634 907.501 549.969C911.307 544.305 913.217 537.097 913.217 528.369V471.357C913.217 470.336 912.842 469.454 912.1 468.712L912.086 468.705Z" fill="#003DFF"/>
<path d="M994.959 604.704L1002.93 603.484C1003.48 606.526 1007.07 607.687 1009.26 607.687C1011.46 607.687 1015.41 607.202 1015.41 603.55C1015.41 596.431 995.877 605.314 995.877 591.685C995.877 582.92 1006.04 582.435 1009.26 582.435C1012.3 582.435 1021.13 582.92 1022.96 589.981L1015.41 591.56C1014.74 588.335 1011.33 587.725 1009.51 587.725C1007.68 587.725 1003.78 588.151 1003.78 591.678C1003.78 598.738 1023.32 589.731 1023.32 603.543C1023.32 612.852 1012.61 613.645 1009.26 613.645C1006.21 613.645 996.538 612.852 994.951 604.696L994.959 604.704Z" fill="#003DFF"/>
<path d="M1037.56 588.511V604.278C1037.56 606.107 1037.93 606.349 1039.39 606.349H1041.52V613.285H1039.39C1030.14 613.285 1029.66 610.243 1029.66 604.278V588.511H1024.67V582.487H1029.66V576.763L1037.57 574.331V582.487H1042.56V588.511H1037.57H1037.56Z" fill="#003DFF"/>
<path d="M1072.92 582.854V613.285H1065.01V607.202C1062.7 611.705 1059.11 613.777 1055.04 613.777C1046.51 613.777 1045.73 606.474 1045.73 600.024V582.861H1053.64V600.024C1053.64 605.196 1053.88 608.73 1057.29 608.73C1059.42 608.73 1065.02 607.576 1065.02 593.639V582.869H1072.93L1072.92 582.854Z" fill="#003DFF"/>
<path d="M1108.71 570.68V613.285H1100.8V608.723C1098.43 612.132 1094.59 613.711 1090.09 613.652C1082.05 613.594 1076.09 607.995 1076.09 598.069C1076.09 588.144 1082.06 582.553 1090.09 582.487C1094.59 582.428 1098.43 584.007 1100.8 587.416V570.68H1108.71ZM1100.8 598.069C1100.8 590.524 1096.05 588.394 1091.67 588.452C1087.35 588.511 1084 591.376 1084 598.069C1084 604.763 1087.35 607.628 1091.67 607.687C1096.05 607.745 1100.8 605.681 1100.8 598.069Z" fill="#003DFF"/>
<path d="M1112.36 570.68H1120.52V578.651H1112.36V570.68ZM1120.39 613.285V582.854H1112.48V613.285H1120.39Z" fill="#003DFF"/>
<path d="M1139.26 613.645C1131.23 613.645 1123.68 608.59 1123.68 598.062C1123.68 587.534 1131.22 582.42 1139.26 582.479C1147.3 582.538 1154.84 587.534 1154.84 598.062C1154.84 608.59 1147.3 613.645 1139.26 613.645ZM1139.26 588.754C1134.27 588.695 1131.59 592.346 1131.59 598.062C1131.59 603.778 1134.26 607.371 1139.26 607.371C1144.26 607.371 1146.93 603.778 1146.93 598.062C1146.93 592.346 1144.25 588.812 1139.26 588.754Z" fill="#003DFF"/>
<path d="M1146.28 477.242H1144.41V480.636H1142.65V471.981H1146.89C1147.5 471.996 1147.96 472.069 1148.28 472.202C1148.6 472.341 1148.88 472.54 1149.11 472.804C1149.3 473.024 1149.45 473.267 1149.56 473.531C1149.67 473.796 1149.72 474.097 1149.72 474.442C1149.72 474.854 1149.62 475.258 1149.41 475.655C1149.21 476.051 1148.86 476.331 1148.38 476.5C1148.78 476.661 1149.07 476.889 1149.23 477.183C1149.4 477.477 1149.48 477.932 1149.48 478.535V479.115C1149.48 479.512 1149.49 479.776 1149.52 479.916C1149.57 480.136 1149.68 480.305 1149.85 480.408V480.629H1147.86C1147.81 480.438 1147.77 480.283 1147.75 480.166C1147.7 479.923 1147.67 479.673 1147.67 479.424L1147.66 478.623C1147.65 478.072 1147.55 477.705 1147.36 477.521C1147.16 477.337 1146.8 477.242 1146.27 477.242H1146.28ZM1147.37 475.669C1147.73 475.508 1147.91 475.177 1147.91 474.692C1147.91 474.171 1147.73 473.818 1147.39 473.634C1147.19 473.531 1146.89 473.48 1146.5 473.48H1144.4V475.802H1146.45C1146.86 475.802 1147.16 475.758 1147.37 475.662V475.669Z" fill="#003DFF" stroke="#003DFF"/>
<path d="M1145.87 485.397C1140.92 485.397 1136.89 481.371 1136.89 476.419C1136.89 471.467 1140.92 467.441 1145.87 467.441C1150.82 467.441 1154.85 471.467 1154.85 476.419C1154.85 481.371 1150.82 485.397 1145.87 485.397ZM1145.87 468.896C1141.72 468.896 1138.35 472.268 1138.35 476.419C1138.35 480.57 1141.72 483.942 1145.87 483.942C1150.02 483.942 1153.4 480.57 1153.4 476.419C1153.4 472.268 1150.02 468.896 1145.87 468.896Z" fill="#003DFF" stroke="#003DFF"/>
<path d="M1155.88 560.519L1124.79 471.599C1124.51 470.578 1123.86 469.557 1122.84 468.536C1121.82 467.514 1120.38 467 1118.52 467H1088.27C1086.41 467 1084.97 467.514 1083.95 468.536C1082.93 469.557 1082.28 470.578 1082 471.599L1078.13 482.664C1081.57 487.976 1083.31 494.294 1083.31 501.567C1083.31 508.18 1081.77 514.028 1078.74 518.965C1076.11 523.219 1072.82 526.789 1068.94 529.596L1085.14 559.623L1085.16 559.652L1085.17 559.682C1085.25 559.851 1085.33 560.012 1085.39 560.181L1088.41 551.887H1118.38L1121.72 561.085C1122 561.827 1122.54 562.599 1123.32 563.385C1124.11 564.178 1125.39 564.567 1127.16 564.567H1152.95C1153.78 564.567 1154.5 564.266 1155.11 563.664C1155.71 563.061 1156.01 562.341 1156.01 561.504C1156.01 561.136 1155.97 560.806 1155.87 560.527L1155.88 560.519ZM1095.53 524.703L1103.33 498.776L1111.28 524.703H1095.52H1095.53Z" fill="#003DFF"/>
<path d="M1083.14 560.556L1066 528.781C1070.36 525.996 1073.96 522.301 1076.8 517.701C1079.63 513.102 1081.05 507.687 1081.05 501.465C1081.05 490.966 1077.29 482.693 1069.76 476.654C1062.23 470.615 1051.78 467.595 1038.4 467.595H997.148C996.127 467.595 995.245 467.97 994.503 468.712C993.761 469.454 993.387 470.336 993.387 471.357V478.292C994.349 479.35 995.253 480.46 996.068 481.642C999.793 487.057 1001.68 493.927 1001.68 502.06C1001.68 510.193 999.786 516.989 996.046 522.227C995.238 523.358 994.342 524.416 993.387 525.423V561.394C993.387 562.415 993.754 563.296 994.503 564.039C995.245 564.781 996.127 565.155 997.148 565.155H1024.46C1025.49 565.155 1026.37 564.788 1027.11 564.039C1027.85 563.289 1028.23 562.415 1028.23 561.394V534.776H1033.94L1045.93 561.394C1046.21 562.047 1046.81 562.834 1047.75 563.767C1048.67 564.7 1050.07 565.163 1051.93 565.163H1080.5C1081.34 565.163 1082.06 564.861 1082.66 564.259C1083.26 563.656 1083.56 562.936 1083.56 562.099C1083.56 561.636 1083.42 561.122 1083.14 560.563L1083.14 560.556ZM1043.21 506.13C1042.13 507.57 1040.53 508.29 1038.4 508.29H1028.23V493.515H1038.4C1040.72 493.515 1042.38 494.331 1043.35 495.954C1044.32 497.578 1044.81 499.327 1044.81 501.178C1044.81 503.029 1044.27 504.69 1043.21 506.123V506.13Z" fill="#003DFF"/>
<path d="M994.239 482.576C990.756 477.514 985.878 473.752 979.604 471.283C973.329 468.822 965.968 467.588 957.511 467.588H915.281C914.862 467.588 914.473 467.669 914.106 467.786C914.892 468.822 915.311 470.034 915.311 471.349V528.354C915.311 535.554 914.032 541.843 911.52 547.133V561.386C911.52 562.408 911.887 563.289 912.636 564.031C913.378 564.773 914.26 565.148 915.281 565.148H943.993C945.014 565.148 945.896 564.781 946.638 564.031C947.38 563.282 947.755 562.408 947.755 561.386V534.768H957.511C965.968 534.768 973.329 533.63 979.604 531.352C985.878 529.074 990.756 525.496 994.239 520.618C997.721 515.74 999.463 509.443 999.463 501.729C999.463 494.015 997.721 487.63 994.239 482.568V482.576ZM961.133 507.247C959.738 508.407 958.298 508.988 956.813 508.988H947.057V493.515H956.813C959.326 493.515 961.016 494.397 961.898 496.16C962.779 497.923 963.22 499.694 963.22 501.457C963.22 504.154 962.522 506.078 961.126 507.239L961.133 507.247Z" fill="#003DFF"/>
<path d="M852.296 521.368C849.739 517.283 845.654 514.006 840.034 511.545C834.413 509.083 826.956 507.291 817.662 506.181C813.482 505.623 810.278 505.065 808.045 504.506C805.811 503.948 804.283 503.301 803.446 502.552C802.608 501.81 802.189 501.016 802.189 500.179C802.189 498.974 802.726 498.019 803.791 497.321C804.856 496.623 806.554 496.278 808.875 496.278C810.829 496.278 812.431 496.579 813.68 497.181C814.936 497.784 815.796 498.32 816.259 498.783C817.096 499.525 819.455 503.213 820.248 503.588C820.248 503.588 821.571 504.69 822.878 504.69V471.357C822.878 471.092 822.9 467.852 822.937 467.595C818.676 466.618 813.776 467.015 808.941 467.595C800.544 468.602 793.006 470.453 786.643 473.142C780.281 475.838 775.307 479.6 771.729 484.434C768.151 489.269 766.366 494.845 766.366 501.163C766.366 507.482 767.828 512.478 770.759 516.702C773.683 520.934 777.842 524.255 783.234 526.665C788.62 529.082 794.989 530.801 802.329 531.822C806.972 532.381 810.594 532.961 813.203 533.563C815.803 534.166 817.64 534.842 818.705 535.584C819.771 536.326 820.307 537.259 820.307 538.368C820.307 539.581 819.352 540.528 817.449 541.226C815.546 541.924 813.011 542.27 809.852 542.27C808.368 542.27 806.994 542.152 805.738 541.924C804.482 541.697 803.372 541.322 802.395 540.808C801.418 540.301 800.463 539.713 799.537 539.066C798.604 538.324 797.745 537.744 796.958 537.325C796.165 536.906 795.026 536.701 793.542 536.701H767.064C766.226 536.701 765.506 537.002 764.904 537.604C764.301 538.207 764 538.927 764 539.764C764.184 544.878 765.954 549.705 769.297 554.26C772.64 558.815 777.658 562.481 784.351 565.273C791.044 568.057 799.545 569.453 809.86 569.453C818.683 569.453 826.581 568.131 833.554 565.479C840.526 562.826 846.029 559.043 850.07 554.12C854.11 549.198 856.131 543.342 856.131 536.561C856.131 530.522 854.852 525.46 852.296 521.368Z" fill="#003DFF"/>
</g>
<defs>
<clipPath id="clip0_108_217">
<rect width="392.019" height="146.77" fill="white" transform="translate(764 467)"/>
</clipPath>
</defs>
</svg>
